<svg id="Capa_1" enable-background="new 0 0 512 512" height="512" viewBox="0 0 512 512" width="512" xmlns="http://www.w3.org/2000/svg"><g><path d="m365.566 355.732h-146.986c-4.144 0-7.502 3.358-7.502 7.502s3.358 7.502 7.502 7.502h146.986c28.955 0 52.512-23.557 52.512-52.512v-112.645c0-28.955-23.557-52.512-52.512-52.512h-42.596l-96.8-49.413c-9.657-4.928-21.522-1.08-26.45 8.573l-20.847 40.84h-27.775c-9.652 0-17.504 7.852-17.504 17.504v182.66c0 9.652 7.852 17.504 17.504 17.504h34.485c4.144 0 7.502-3.358 7.502-7.502s-3.358-7.502-7.502-7.502h-34.485c-1.379 0-2.501-1.121-2.501-2.501v-182.66c0-1.379 1.121-2.501 2.501-2.501h214.467c20.683 0 37.509 16.826 37.509 37.509v24.392h-59.754c-19.136 0-34.704 15.568-34.704 34.704v9.999c0 19.136 15.568 34.704 34.704 34.704h59.754v8.843c.001 20.685-16.825 37.512-37.508 37.512zm-152.482-236.683c1.168-2.288 3.978-3.198 6.266-2.032l70.621 36.05h-94.252zm130.236 175.327c-10.863 0-19.701-8.838-19.701-19.701v-9.999c0-10.863 8.838-19.701 19.701-19.701h59.754v49.401z"/><path d="m493.943 164.685c-11.983-29.075-29.32-55.156-51.531-77.517-5.454-5.491-11.222-10.772-17.146-15.697-3.184-2.645-7.915-2.213-10.565.973-2.648 3.186-2.212 7.916.973 10.565 5.559 4.621 10.973 9.577 16.093 14.732 42.064 42.351 65.229 98.556 65.229 158.26 0 59.992-23.362 116.393-65.783 158.813-42.42 42.421-98.821 65.783-158.814 65.783-47.391 0-92.53-14.503-130.778-41.978l8.862-11.524c35.684 25.51 77.76 38.974 121.916 38.974 56.124 0 108.919-21.942 148.661-61.782 39.739-39.839 61.547-92.69 61.407-148.819-.288-115.251-94.284-209.248-209.535-209.536-.183 0-.363-.001-.547-.001-33.51 0-65.56 7.697-95.267 22.879-28.471 14.55-53.683 35.808-72.912 61.475-2.484 3.316-1.809 8.018 1.506 10.502 3.315 2.482 8.018 1.808 10.502-1.506 36.771-49.085 95.131-78.348 156.202-78.348.157 0 .32.001.478.001 107.018.268 194.302 87.551 194.569 194.569.13 52.115-20.122 101.191-57.026 138.187-36.906 36.998-85.93 57.374-138.039 57.374-42.104 0-82.163-13.178-115.848-38.109-4.963-3.674-12.071-2.668-15.846 2.241l-13.203 17.169c-1.884 2.449-2.687 5.483-2.261 8.543.428 3.072 2.038 5.784 4.531 7.634 41.463 30.785 90.782 47.057 142.627 47.057 64 0 124.169-24.923 169.424-70.177 45.255-45.253 70.178-105.422 70.178-169.421 0-31.52-6.076-62.243-18.057-91.316z"/><path d="m98.167 219.743c-1.423-2.404-3.698-4.109-6.404-4.801-2.706-.694-5.519-.289-7.922 1.134l-2.717 1.612c3.439-17.229 9.2-33.864 17.197-49.631 1.874-3.694.399-8.209-3.297-10.083-3.69-1.873-8.208-.4-10.083 3.297-11.17 22.018-18.289 45.612-21.163 70.129-.332 2.833.972 5.61 3.364 7.164s5.459 1.617 7.912.163l12.523-7.424 7.407 12.499-42.828 25.384-35.275-32.003 9.76-10.759 10.067 9.131c2.089 1.894 5.06 2.457 7.696 1.46 2.635-.998 4.49-3.389 4.8-6.19 5.646-50.954 27.908-97.167 64.38-133.639 42.218-42.218 98.342-65.58 158.032-65.782.257-.001.513-.001.77-.001 41.065 0 81.104 11.079 115.836 32.06 3.546 2.141 8.158 1.005 10.3-2.543 2.142-3.546 1.004-8.157-2.543-10.3-37.075-22.397-79.791-34.221-123.594-34.221-.272 0-.549 0-.821.001-31.516.106-62.218 6.29-91.251 18.375-29.03 12.085-55.051 29.513-77.34 51.801-35.481 35.482-58.357 79.611-66.68 128.347l-2.94-2.667c-2.068-1.877-4.734-2.823-7.534-2.702-2.79.137-5.36 1.35-7.235 3.419l-15.87 17.497c-1.877 2.068-2.837 4.744-2.701 7.534s1.35 5.36 3.419 7.235l40.594 36.828c2.17 1.968 4.908 2.979 7.674 2.979 2.002 0 4.02-.53 5.843-1.612l49.005-29.045c4.958-2.938 6.602-9.363 3.664-14.324z"/><g><circle cx="348.491" cy="269.577" r="12.655"/></g></g></svg>